<svg xmlns="http://www.w3.org/2000/svg" viewBox="0 0 420 150" preserveAspectRatio="xMidYMid slice" aria-hidden="true" focusable="false"><g filter="url(#s1-gr)"><defs><filter id="s1-gr" x="0" y="0" width="100%" height="100%" color-interpolation-filters="sRGB"><feTurbulence type="fractalNoise" baseFrequency="0.85" numOctaves="2" seed="3" result="t"/><feColorMatrix in="t" type="matrix" values="0.333 0.333 0.333 0 0  0.333 0.333 0.333 0 0  0.333 0.333 0.333 0 0  0 0 0 0 1" result="gri"/><feComposite in="SourceGraphic" in2="gri" operator="arithmetic" k1="0" k2="1" k3="0.16" k4="-0.080" result="k"/><feComposite in="k" in2="SourceGraphic" operator="in"/></filter><linearGradient id="s1-zm" x1="0" y1="0" x2="0" y2="1"><stop offset="0" stop-color="#FFF2EC"/><stop offset="1" stop-color="#FFDBD0"/></linearGradient><radialGradient id="s1-hg" gradientUnits="userSpaceOnUse" cx="370" cy="15" r="176"><stop offset="0.000" stop-color="#fff" stop-opacity="1.000"/><stop offset="0.125" stop-color="#fff" stop-opacity="0.829"/><stop offset="0.250" stop-color="#fff" stop-opacity="0.668"/><stop offset="0.375" stop-color="#fff" stop-opacity="0.518"/><stop offset="0.500" stop-color="#fff" stop-opacity="0.379"/><stop offset="0.625" stop-color="#fff" stop-opacity="0.253"/><stop offset="0.750" stop-color="#fff" stop-opacity="0.144"/><stop offset="0.875" stop-color="#fff" stop-opacity="0.054"/><stop offset="1.000" stop-color="#fff" stop-opacity="0.000"/></radialGradient><filter id="s1-hf" x="189.20000000000002" y="-165.4" width="360.8" height="360.8" filterUnits="userSpaceOnUse" color-interpolation-filters="sRGB"><feGaussianBlur in="SourceAlpha" stdDeviation="0.4" result="b"/><feTurbulence type="fractalNoise" baseFrequency="1.35" numOctaves="3" seed="17" result="t"/><feColorMatrix in="t" type="matrix" values="0 0 0 0 0  0 0 0 0 0  0 0 0 0 0  2.2 0 0 0 -0.600" result="nA"/><feComposite in="b" in2="nA" operator="arithmetic" k1="0" k2="1" k3="-1" k4="0.0" result="fark"/><feComponentTransfer in="fark" result="e"><feFuncA type="linear" slope="15" intercept="0"/></feComponentTransfer><feFlood flood-color="#FFFFFF"/><feComposite in2="e" operator="in"/></filter></defs><rect vector-effect="non-scaling-stroke" width="420" height="150" fill="url(#s1-zm)"/><circle vector-effect="non-scaling-stroke" cx="370" cy="15" r="176" fill="url(#s1-hg)" filter="url(#s1-hf)" opacity="0.73"/><path vector-effect="non-scaling-stroke" d="M16 130H404" stroke="#A9B4CA" stroke-width="1.7" stroke-linecap="round"/><circle vector-effect="non-scaling-stroke" cx="52" cy="50" r="13" fill="#FFB4A2" stroke="#0B1B3C" stroke-width="2.1"/><circle vector-effect="non-scaling-stroke" cx="48.4" cy="46.1" r="5.5" fill="#FFEFE9" opacity=".85"/><path vector-effect="non-scaling-stroke" d="M71,50L79,50" stroke="#0B1B3C" stroke-width="2.1" stroke-linecap="round"/><path vector-effect="non-scaling-stroke" d="M65.4,63.4L71.1,69.1" stroke="#0B1B3C" stroke-width="2.1" stroke-linecap="round"/><path vector-effect="non-scaling-stroke" d="M52,69L52,77" stroke="#0B1B3C" stroke-width="2.1" stroke-linecap="round"/><path vector-effect="non-scaling-stroke" d="M38.6,63.4L32.9,69.1" stroke="#0B1B3C" stroke-width="2.1" stroke-linecap="round"/><path vector-effect="non-scaling-stroke" d="M33,50L25,50" stroke="#0B1B3C" stroke-width="2.1" stroke-linecap="round"/><path vector-effect="non-scaling-stroke" d="M38.6,36.6L32.9,30.9" stroke="#0B1B3C" stroke-width="2.1" stroke-linecap="round"/><path vector-effect="non-scaling-stroke" d="M52,31L52,23" stroke="#0B1B3C" stroke-width="2.1" stroke-linecap="round"/><path vector-effect="non-scaling-stroke" d="M65.4,36.6L71.1,30.9" stroke="#0B1B3C" stroke-width="2.1" stroke-linecap="round"/><path vector-effect="non-scaling-stroke" d="M66 58L174 111.8M68 50L204 98.4M70 44L234 85" stroke="#A9B4CA" stroke-width="1.7" stroke-dasharray="2.5 5.5" stroke-linecap="round"/><ellipse vector-effect="non-scaling-stroke" cx="224" cy="129" rx="70" ry="4.5" fill="#0B1B3C" opacity="0.22"/><path vector-effect="non-scaling-stroke" d="M178 118V130M270 77V130" stroke="#0B1B3C" stroke-width="2.1" stroke-linecap="round"/><defs><linearGradient id="s1-pg" x1="0" y1="0" x2="0" y2="1"><stop offset="0" stop-color="#FFFFFF"/><stop offset="1" stop-color="#DCE3F2"/></linearGradient></defs><rect vector-effect="non-scaling-stroke" x="-70" y="-5" width="140" height="10" rx="2.5" transform="translate(224 94) rotate(-24)" fill="url(#s1-pg)" stroke="#0B1B3C" stroke-width="2.1"/><path vector-effect="non-scaling-stroke" d="M300 130V46" stroke="#A9B4CA" stroke-width="1.7" stroke-linecap="round"/><path vector-effect="non-scaling-stroke" d="M312 68H410" stroke="#A9B4CA" stroke-width="1.7" stroke-dasharray="2.5 5.5"/><path vector-effect="non-scaling-stroke" d="M316,128 L317,128 L318,128 L319,128 L320,128 L321,128 L322,126.8 L323,124.9 L324,122.7 L325,120.2 L326,117.6 L327,114.9 L328,112.1 L329,109.2 L330,106.3 L331,103.4 L332,100.4 L333,97.5 L334,94.6 L335,91.7 L336,88.9 L337,86.2 L338,83.4 L339,80.8 L340,78.3 L341,75.8 L342,73.4 L343,71.1 L344,68.9 L345,66.8 L346,64.9 L347,63 L348,61.3 L349,59.6 L350,58.1 L351,56.7 L352,55.5 L353,54.3 L354,53.3 L355,52.4 L356,51.7 L357,51.1 L358,50.6 L359,50.3 L360,50.1 L361,50 L362,50.1 L363,50.3 L364,50.6 L365,51.1 L366,51.7 L367,52.4 L368,53.3 L369,54.3 L370,55.5 L371,56.7 L372,58.1 L373,59.6 L374,61.3 L375,63 L376,64.9 L377,66.8 L378,68.9 L379,71.1 L380,73.4 L381,75.8 L382,78.3 L383,80.8 L384,83.4 L385,86.2 L386,88.9 L387,91.7 L388,94.6 L389,97.5 L390,100.4 L391,103.4 L392,106.3 L393,109.2 L394,112.1 L395,114.9 L396,117.6 L397,120.2 L398,122.7 L399,124.9 L400,126.8 L401,128 L402,128 L403,128 L404,128 L405,128 L406,128 L407,128 L408,128 L409,128 L410,128" fill="none" stroke="#A9B4CA" stroke-width="1.7" stroke-dasharray="2.5 5.5"/><path vector-effect="non-scaling-stroke" d="M316,128 L317,128 L318,128 L319,128 L320,128 L321,128 L322,126.8 L323,124.9 L324,122.7 L325,120.2 L326,117.6 L327,114.9 L328,112.1 L329,109.2 L330,106.3 L331,103.4 L332,100.4 L333,97.5 L334,94.6 L335,91.7 L336,88.9 L337,86.2 L338,83.4 L339,80.8 L340,78.3 L341,75.8 L342,73.4 L343,71.1 L344,68.9 L345,68 L346,68 L347,68 L348,68 L349,68 L350,68 L351,68 L352,68 L353,68 L354,68 L355,68 L356,68 L357,68 L358,68 L359,68 L360,68 L361,68 L362,68 L363,68 L364,68 L365,68 L366,68 L367,68 L368,68 L369,68 L370,68 L371,68 L372,68 L373,68 L374,68 L375,68 L376,68 L377,68 L378,68.9 L379,71.1 L380,73.4 L381,75.8 L382,78.3 L383,80.8 L384,83.4 L385,86.2 L386,88.9 L387,91.7 L388,94.6 L389,97.5 L390,100.4 L391,103.4 L392,106.3 L393,109.2 L394,112.1 L395,114.9 L396,117.6 L397,120.2 L398,122.7 L399,124.9 L400,126.8 L401,128 L402,128 L403,128 L404,128 L405,128 L406,128 L407,128 L408,128 L409,128 L410,128" fill="none" stroke="#0B1B3C" stroke-width="2.1" stroke-linejoin="round" stroke-linecap="round"/></g></svg>