<svg xmlns="http://www.w3.org/2000/svg" viewBox="0 0 384 176" preserveAspectRatio="xMidYMid slice" aria-hidden="true" focusable="false"><g filter="url(#v3-gr)"><defs><filter id="v3-gr" x="0" y="0" width="100%" height="100%" color-interpolation-filters="sRGB"><feTurbulence type="fractalNoise" baseFrequency="0.85" numOctaves="2" seed="3" result="t"/><feColorMatrix in="t" type="matrix" values="0.333 0.333 0.333 0 0  0.333 0.333 0.333 0 0  0.333 0.333 0.333 0 0  0 0 0 0 1" result="gri"/><feComposite in="SourceGraphic" in2="gri" operator="arithmetic" k1="0" k2="1" k3="0.16" k4="-0.080" result="k"/><feComposite in="k" in2="SourceGraphic" operator="in"/></filter><linearGradient id="v3-zm" x1="0" y1="0" x2="0" y2="1"><stop offset="0" stop-color="#F0F4FB"/><stop offset="1" stop-color="#D8E0F1"/></linearGradient><radialGradient id="v3-hg" gradientUnits="userSpaceOnUse" cx="338" cy="18" r="161"><stop offset="0.000" stop-color="#fff" stop-opacity="1.000"/><stop offset="0.125" stop-color="#fff" stop-opacity="0.829"/><stop offset="0.250" stop-color="#fff" stop-opacity="0.668"/><stop offset="0.375" stop-color="#fff" stop-opacity="0.518"/><stop offset="0.500" stop-color="#fff" stop-opacity="0.379"/><stop offset="0.625" stop-color="#fff" stop-opacity="0.253"/><stop offset="0.750" stop-color="#fff" stop-opacity="0.144"/><stop offset="0.875" stop-color="#fff" stop-opacity="0.054"/><stop offset="1.000" stop-color="#fff" stop-opacity="0.000"/></radialGradient><filter id="v3-hf" x="172.64000000000001" y="-147.68" width="330.56" height="330.56" filterUnits="userSpaceOnUse" color-interpolation-filters="sRGB"><feGaussianBlur in="SourceAlpha" stdDeviation="0.4" result="b"/><feTurbulence type="fractalNoise" baseFrequency="1.35" numOctaves="3" seed="17" result="t"/><feColorMatrix in="t" type="matrix" values="0 0 0 0 0  0 0 0 0 0  0 0 0 0 0  2.2 0 0 0 -0.600" result="nA"/><feComposite in="b" in2="nA" operator="arithmetic" k1="0" k2="1" k3="-1" k4="0.0" result="fark"/><feComponentTransfer in="fark" result="e"><feFuncA type="linear" slope="15" intercept="0"/></feComponentTransfer><feFlood flood-color="#FFFFFF"/><feComposite in2="e" operator="in"/></filter></defs><rect vector-effect="non-scaling-stroke" width="384" height="176" fill="url(#v3-zm)"/><circle vector-effect="non-scaling-stroke" cx="338" cy="18" r="161" fill="url(#v3-hg)" filter="url(#v3-hf)" opacity="0.62"/><rect vector-effect="non-scaling-stroke" x="22" y="36" width="116" height="92" rx="10" fill="#fff" stroke="#0B1B3C" stroke-width="2.1"/><path vector-effect="non-scaling-stroke" d="M34,101.6 C34.7,101.4 36.7,101 38,100.5 C39.3,100 40.7,99.4 42,98.6 C43.3,97.8 44.7,96.9 46,95.7 C47.3,94.6 48.7,93.3 50,91.7 C51.3,90.1 52.7,88.3 54,86.3 C55.3,84.3 56.7,82 58,79.7 C59.3,77.3 60.7,74.8 62,72.2 C63.3,69.7 64.7,67 66,64.6 C67.3,62.1 68.7,59.7 70,57.6 C71.3,55.6 72.7,53.6 74,52.3 C75.3,50.9 76.7,49.9 78,49.4 C79.3,48.9 80.7,48.9 82,49.4 C83.3,49.9 84.7,50.9 86,52.3 C87.3,53.6 88.7,55.6 90,57.6 C91.3,59.7 92.7,62.1 94,64.6 C95.3,67 96.7,69.7 98,72.2 C99.3,74.8 100.7,77.3 102,79.7 C103.3,82 104.7,84.3 106,86.3 C107.3,88.3 108.7,90.1 110,91.7 C111.3,93.3 112.7,94.6 114,95.7 C115.3,96.9 116.7,97.8 118,98.6 C119.3,99.4 120.7,100 122,100.5 C123.3,101 125.3,101.4 126,101.6 L126,114.6 C125.3,114.4 123.3,114 122,113.5 C120.7,113 119.3,112.4 118,111.6 C116.7,110.8 115.3,109.9 114,108.7 C112.7,107.6 111.3,106.3 110,104.7 C108.7,103.1 107.3,101.3 106,99.3 C104.7,97.3 103.3,95 102,92.7 C100.7,90.3 99.3,87.8 98,85.2 C96.7,82.7 95.3,80 94,77.6 C92.7,75.1 91.3,72.7 90,70.6 C88.7,68.6 87.3,66.6 86,65.3 C84.7,63.9 83.3,62.9 82,62.4 C80.7,61.9 79.3,61.9 78,62.4 C76.7,62.9 75.3,63.9 74,65.3 C72.7,66.6 71.3,68.6 70,70.6 C68.7,72.7 67.3,75.1 66,77.6 C64.7,80 63.3,82.7 62,85.2 C60.7,87.8 59.3,90.3 58,92.7 C56.7,95 55.3,97.3 54,99.3 C52.7,101.3 51.3,103.1 50,104.7 C48.7,106.3 47.3,107.6 46,108.7 C44.7,109.9 43.3,110.8 42,111.6 C40.7,112.4 39.3,113 38,113.5 C36.7,114 34.7,114.4 34,114.6 Z" fill="#2D6FB5" fill-opacity=".22"/><path vector-effect="non-scaling-stroke" d="M34,108.6 C34.7,108.4 36.7,108 38,107.5 C39.3,107 40.7,106.4 42,105.6 C43.3,104.8 44.7,103.9 46,102.7 C47.3,101.6 48.7,100.3 50,98.7 C51.3,97.1 52.7,95.3 54,93.3 C55.3,91.3 56.7,89 58,86.7 C59.3,84.3 60.7,81.8 62,79.2 C63.3,76.7 64.7,74 66,71.6 C67.3,69.1 68.7,66.7 70,64.6 C71.3,62.6 72.7,60.6 74,59.3 C75.3,57.9 76.7,56.9 78,56.4 C79.3,55.9 80.7,55.9 82,56.4 C83.3,56.9 84.7,57.9 86,59.3 C87.3,60.6 88.7,62.6 90,64.6 C91.3,66.7 92.7,69.1 94,71.6 C95.3,74 96.7,76.7 98,79.2 C99.3,81.8 100.7,84.3 102,86.7 C103.3,89 104.7,91.3 106,93.3 C107.3,95.3 108.7,97.1 110,98.7 C111.3,100.3 112.7,101.6 114,102.7 C115.3,103.9 116.7,104.8 118,105.6 C119.3,106.4 120.7,107 122,107.5 C123.3,108 125.3,108.4 126,108.6" fill="none" stroke="#2D6FB5" stroke-width="2.4" stroke-linecap="round"/><path vector-effect="non-scaling-stroke" d="M150 82h50" stroke="#0B1B3C" stroke-width="2.1" stroke-linecap="round"/><path vector-effect="non-scaling-stroke" d="M193 74l9 8-9 8" fill="none" stroke="#0B1B3C" stroke-width="2.1" stroke-linecap="round" stroke-linejoin="round"/><circle vector-effect="non-scaling-stroke" cx="172" cy="82" r="14" fill="none" stroke="#FFB4A2" stroke-width="2"/><circle vector-effect="non-scaling-stroke" cx="172" cy="82" r="21" fill="none" stroke="#FFB4A2" stroke-width="1.2" opacity=".7"/><path vector-effect="non-scaling-stroke" d="M168 88l0 17 4-3.6 3 6.6 3-1.4-3-6.4 5.4-.3z" fill="#fff" stroke="#0B1B3C" stroke-width="1.7" stroke-linejoin="round"/><rect vector-effect="non-scaling-stroke" x="214" y="36" width="148" height="92" rx="10" fill="#fff" stroke="#0B1B3C" stroke-width="2.1"/><rect vector-effect="non-scaling-stroke" x="222.0" y="46" width="4.2" height="12" rx="1" fill="#0B1B3C" fill-opacity="0.12"/><rect vector-effect="non-scaling-stroke" x="227.7" y="46" width="4.2" height="12" rx="1" fill="#0B1B3C" fill-opacity="0.12"/><rect vector-effect="non-scaling-stroke" x="233.4" y="46" width="4.2" height="12" rx="1" fill="#0B1B3C" fill-opacity="0.12"/><rect vector-effect="non-scaling-stroke" x="239.1" y="46" width="4.2" height="12" rx="1" fill="#0B1B3C" fill-opacity="0.12"/><rect vector-effect="non-scaling-stroke" x="244.8" y="46" width="4.2" height="12" rx="1" fill="#0B1B3C" fill-opacity="0.15"/><rect vector-effect="non-scaling-stroke" x="250.5" y="46" width="4.2" height="12" rx="1" fill="#0B1B3C" fill-opacity="0.26"/><rect vector-effect="non-scaling-stroke" x="256.2" y="46" width="4.2" height="12" rx="1" fill="#0B1B3C" fill-opacity="0.37"/><rect vector-effect="non-scaling-stroke" x="261.9" y="46" width="4.2" height="12" rx="1" fill="#0B1B3C" fill-opacity="0.47"/><rect vector-effect="non-scaling-stroke" x="267.6" y="46" width="4.2" height="12" rx="1" fill="#0B1B3C" fill-opacity="0.56"/><rect vector-effect="non-scaling-stroke" x="273.3" y="46" width="4.2" height="12" rx="1" fill="#0B1B3C" fill-opacity="0.63"/><rect vector-effect="non-scaling-stroke" x="279.0" y="46" width="4.2" height="12" rx="1" fill="#0B1B3C" fill-opacity="0.67"/><rect vector-effect="non-scaling-stroke" x="284.7" y="46" width="4.2" height="12" rx="1" fill="#0B1B3C" fill-opacity="0.70"/><rect vector-effect="non-scaling-stroke" x="290.4" y="46" width="4.2" height="12" rx="1" fill="#0B1B3C" fill-opacity="0.70"/><rect vector-effect="non-scaling-stroke" x="296.1" y="46" width="4.2" height="12" rx="1" fill="#0B1B3C" fill-opacity="0.67"/><rect vector-effect="non-scaling-stroke" x="301.8" y="46" width="4.2" height="12" rx="1" fill="#0B1B3C" fill-opacity="0.63"/><rect vector-effect="non-scaling-stroke" x="307.5" y="46" width="4.2" height="12" rx="1" fill="#0B1B3C" fill-opacity="0.56"/><rect vector-effect="non-scaling-stroke" x="313.2" y="46" width="4.2" height="12" rx="1" fill="#0B1B3C" fill-opacity="0.47"/><rect vector-effect="non-scaling-stroke" x="318.9" y="46" width="4.2" height="12" rx="1" fill="#0B1B3C" fill-opacity="0.37"/><rect vector-effect="non-scaling-stroke" x="324.6" y="46" width="4.2" height="12" rx="1" fill="#0B1B3C" fill-opacity="0.26"/><rect vector-effect="non-scaling-stroke" x="330.3" y="46" width="4.2" height="12" rx="1" fill="#0B1B3C" fill-opacity="0.15"/><rect vector-effect="non-scaling-stroke" x="336.0" y="46" width="4.2" height="12" rx="1" fill="#0B1B3C" fill-opacity="0.12"/><rect vector-effect="non-scaling-stroke" x="341.7" y="46" width="4.2" height="12" rx="1" fill="#0B1B3C" fill-opacity="0.12"/><rect vector-effect="non-scaling-stroke" x="347.4" y="46" width="4.2" height="12" rx="1" fill="#0B1B3C" fill-opacity="0.12"/><rect vector-effect="non-scaling-stroke" x="353.1" y="46" width="4.2" height="12" rx="1" fill="#0B1B3C" fill-opacity="0.12"/><rect vector-effect="non-scaling-stroke" x="222.0" y="68.0" width="6.6" height="7.2" rx="1.2" fill="#2D6FB5" fill-opacity="0.10"/><rect vector-effect="non-scaling-stroke" x="230.4" y="68.0" width="6.6" height="7.2" rx="1.2" fill="#2D6FB5" fill-opacity="0.10"/><rect vector-effect="non-scaling-stroke" x="238.8" y="68.0" width="6.6" height="7.2" rx="1.2" fill="#2D6FB5" fill-opacity="0.10"/><rect vector-effect="non-scaling-stroke" x="247.2" y="68.0" width="6.6" height="7.2" rx="1.2" fill="#2D6FB5" fill-opacity="0.21"/><rect vector-effect="non-scaling-stroke" x="255.6" y="68.0" width="6.6" height="7.2" rx="1.2" fill="#2D6FB5" fill-opacity="0.32"/><rect vector-effect="non-scaling-stroke" x="264.0" y="68.0" width="6.6" height="7.2" rx="1.2" fill="#2D6FB5" fill-opacity="0.41"/><rect vector-effect="non-scaling-stroke" x="272.4" y="68.0" width="6.6" height="7.2" rx="1.2" fill="#2D6FB5" fill-opacity="0.48"/><rect vector-effect="non-scaling-stroke" x="280.8" y="68.0" width="6.6" height="7.2" rx="1.2" fill="#2D6FB5" fill-opacity="0.53"/><rect vector-effect="non-scaling-stroke" x="289.2" y="68.0" width="6.6" height="7.2" rx="1.2" fill="#2D6FB5" fill-opacity="0.55"/><rect vector-effect="non-scaling-stroke" x="297.6" y="68.0" width="6.6" height="7.2" rx="1.2" fill="#2D6FB5" fill-opacity="0.54"/><rect vector-effect="non-scaling-stroke" x="306.0" y="68.0" width="6.6" height="7.2" rx="1.2" fill="#2D6FB5" fill-opacity="0.51"/><rect vector-effect="non-scaling-stroke" x="314.4" y="68.0" width="6.6" height="7.2" rx="1.2" fill="#2D6FB5" fill-opacity="0.45"/><rect vector-effect="non-scaling-stroke" x="322.8" y="68.0" width="6.6" height="7.2" rx="1.2" fill="#2D6FB5" fill-opacity="0.36"/><rect vector-effect="non-scaling-stroke" x="331.2" y="68.0" width="6.6" height="7.2" rx="1.2" fill="#2D6FB5" fill-opacity="0.27"/><rect vector-effect="non-scaling-stroke" x="339.6" y="68.0" width="6.6" height="7.2" rx="1.2" fill="#2D6FB5" fill-opacity="0.16"/><rect vector-effect="non-scaling-stroke" x="348.0" y="68.0" width="6.6" height="7.2" rx="1.2" fill="#2D6FB5" fill-opacity="0.10"/><rect vector-effect="non-scaling-stroke" x="222.0" y="77.4" width="6.6" height="7.2" rx="1.2" fill="#2D6FB5" fill-opacity="0.10"/><rect vector-effect="non-scaling-stroke" x="230.4" y="77.4" width="6.6" height="7.2" rx="1.2" fill="#2D6FB5" fill-opacity="0.10"/><rect vector-effect="non-scaling-stroke" x="238.8" y="77.4" width="6.6" height="7.2" rx="1.2" fill="#2D6FB5" fill-opacity="0.10"/><rect vector-effect="non-scaling-stroke" x="247.2" y="77.4" width="6.6" height="7.2" rx="1.2" fill="#2D6FB5" fill-opacity="0.21"/><rect vector-effect="non-scaling-stroke" x="255.6" y="77.4" width="6.6" height="7.2" rx="1.2" fill="#2D6FB5" fill-opacity="0.32"/><rect vector-effect="non-scaling-stroke" x="264.0" y="77.4" width="6.6" height="7.2" rx="1.2" fill="#2D6FB5" fill-opacity="0.41"/><rect vector-effect="non-scaling-stroke" x="272.4" y="77.4" width="6.6" height="7.2" rx="1.2" fill="#2D6FB5" fill-opacity="0.48"/><rect vector-effect="non-scaling-stroke" x="280.8" y="77.4" width="6.6" height="7.2" rx="1.2" fill="#2D6FB5" fill-opacity="0.53"/><rect vector-effect="non-scaling-stroke" x="289.2" y="77.4" width="6.6" height="7.2" rx="1.2" fill="#2D6FB5" fill-opacity="0.55"/><rect vector-effect="non-scaling-stroke" x="297.6" y="77.4" width="6.6" height="7.2" rx="1.2" fill="#2D6FB5" fill-opacity="0.54"/><rect vector-effect="non-scaling-stroke" x="306.0" y="77.4" width="6.6" height="7.2" rx="1.2" fill="#2D6FB5" fill-opacity="0.51"/><rect vector-effect="non-scaling-stroke" x="314.4" y="77.4" width="6.6" height="7.2" rx="1.2" fill="#2D6FB5" fill-opacity="0.45"/><rect vector-effect="non-scaling-stroke" x="322.8" y="77.4" width="6.6" height="7.2" rx="1.2" fill="#2D6FB5" fill-opacity="0.36"/><rect vector-effect="non-scaling-stroke" x="331.2" y="77.4" width="6.6" height="7.2" rx="1.2" fill="#2D6FB5" fill-opacity="0.27"/><rect vector-effect="non-scaling-stroke" x="339.6" y="77.4" width="6.6" height="7.2" rx="1.2" fill="#2D6FB5" fill-opacity="0.16"/><rect vector-effect="non-scaling-stroke" x="348.0" y="77.4" width="6.6" height="7.2" rx="1.2" fill="#2D6FB5" fill-opacity="0.10"/><rect vector-effect="non-scaling-stroke" x="222.0" y="86.8" width="6.6" height="7.2" rx="1.2" fill="#2D6FB5" fill-opacity="0.10"/><rect vector-effect="non-scaling-stroke" x="230.4" y="86.8" width="6.6" height="7.2" rx="1.2" fill="#2D6FB5" fill-opacity="0.10"/><rect vector-effect="non-scaling-stroke" x="238.8" y="86.8" width="6.6" height="7.2" rx="1.2" fill="#2D6FB5" fill-opacity="0.10"/><rect vector-effect="non-scaling-stroke" x="247.2" y="86.8" width="6.6" height="7.2" rx="1.2" fill="#2D6FB5" fill-opacity="0.21"/><rect vector-effect="non-scaling-stroke" x="255.6" y="86.8" width="6.6" height="7.2" rx="1.2" fill="#2D6FB5" fill-opacity="0.32"/><rect vector-effect="non-scaling-stroke" x="264.0" y="86.8" width="6.6" height="7.2" rx="1.2" fill="#2D6FB5" fill-opacity="0.41"/><rect vector-effect="non-scaling-stroke" x="272.4" y="86.8" width="6.6" height="7.2" rx="1.2" fill="#2D6FB5" fill-opacity="0.48"/><rect vector-effect="non-scaling-stroke" x="280.8" y="86.8" width="6.6" height="7.2" rx="1.2" fill="#2D6FB5" fill-opacity="0.53"/><rect vector-effect="non-scaling-stroke" x="289.2" y="86.8" width="6.6" height="7.2" rx="1.2" fill="#2D6FB5" fill-opacity="0.55"/><rect vector-effect="non-scaling-stroke" x="297.6" y="86.8" width="6.6" height="7.2" rx="1.2" fill="#2D6FB5" fill-opacity="0.54"/><rect vector-effect="non-scaling-stroke" x="306.0" y="86.8" width="6.6" height="7.2" rx="1.2" fill="#2D6FB5" fill-opacity="0.51"/><rect vector-effect="non-scaling-stroke" x="314.4" y="86.8" width="6.6" height="7.2" rx="1.2" fill="#2D6FB5" fill-opacity="0.45"/><rect vector-effect="non-scaling-stroke" x="322.8" y="86.8" width="6.6" height="7.2" rx="1.2" fill="#2D6FB5" fill-opacity="0.36"/><rect vector-effect="non-scaling-stroke" x="331.2" y="86.8" width="6.6" height="7.2" rx="1.2" fill="#2D6FB5" fill-opacity="0.27"/><rect vector-effect="non-scaling-stroke" x="339.6" y="86.8" width="6.6" height="7.2" rx="1.2" fill="#2D6FB5" fill-opacity="0.16"/><rect vector-effect="non-scaling-stroke" x="348.0" y="86.8" width="6.6" height="7.2" rx="1.2" fill="#2D6FB5" fill-opacity="0.10"/><rect vector-effect="non-scaling-stroke" x="222.0" y="96.2" width="6.6" height="7.2" rx="1.2" fill="#2D6FB5" fill-opacity="0.10"/><rect vector-effect="non-scaling-stroke" x="230.4" y="96.2" width="6.6" height="7.2" rx="1.2" fill="#2D6FB5" fill-opacity="0.10"/><rect vector-effect="non-scaling-stroke" x="238.8" y="96.2" width="6.6" height="7.2" rx="1.2" fill="#2D6FB5" fill-opacity="0.10"/><rect vector-effect="non-scaling-stroke" x="247.2" y="96.2" width="6.6" height="7.2" rx="1.2" fill="#2D6FB5" fill-opacity="0.21"/><rect vector-effect="non-scaling-stroke" x="255.6" y="96.2" width="6.6" height="7.2" rx="1.2" fill="#2D6FB5" fill-opacity="0.32"/><rect vector-effect="non-scaling-stroke" x="264.0" y="96.2" width="6.6" height="7.2" rx="1.2" fill="#2D6FB5" fill-opacity="0.41"/><rect vector-effect="non-scaling-stroke" x="272.4" y="96.2" width="6.6" height="7.2" rx="1.2" fill="#2D6FB5" fill-opacity="0.48"/><rect vector-effect="non-scaling-stroke" x="280.8" y="96.2" width="6.6" height="7.2" rx="1.2" fill="#2D6FB5" fill-opacity="0.53"/><rect vector-effect="non-scaling-stroke" x="289.2" y="96.2" width="6.6" height="7.2" rx="1.2" fill="#2D6FB5" fill-opacity="0.55"/><rect vector-effect="non-scaling-stroke" x="297.6" y="96.2" width="6.6" height="7.2" rx="1.2" fill="#2D6FB5" fill-opacity="0.54"/><rect vector-effect="non-scaling-stroke" x="306.0" y="96.2" width="6.6" height="7.2" rx="1.2" fill="#2D6FB5" fill-opacity="0.51"/><rect vector-effect="non-scaling-stroke" x="314.4" y="96.2" width="6.6" height="7.2" rx="1.2" fill="#2D6FB5" fill-opacity="0.45"/><rect vector-effect="non-scaling-stroke" x="322.8" y="96.2" width="6.6" height="7.2" rx="1.2" fill="#2D6FB5" fill-opacity="0.36"/><rect vector-effect="non-scaling-stroke" x="331.2" y="96.2" width="6.6" height="7.2" rx="1.2" fill="#2D6FB5" fill-opacity="0.27"/><rect vector-effect="non-scaling-stroke" x="339.6" y="96.2" width="6.6" height="7.2" rx="1.2" fill="#2D6FB5" fill-opacity="0.16"/><rect vector-effect="non-scaling-stroke" x="348.0" y="96.2" width="6.6" height="7.2" rx="1.2" fill="#2D6FB5" fill-opacity="0.10"/><rect vector-effect="non-scaling-stroke" x="222.0" y="105.6" width="6.6" height="7.2" rx="1.2" fill="#2D6FB5" fill-opacity="0.10"/><rect vector-effect="non-scaling-stroke" x="230.4" y="105.6" width="6.6" height="7.2" rx="1.2" fill="#2D6FB5" fill-opacity="0.10"/><rect vector-effect="non-scaling-stroke" x="238.8" y="105.6" width="6.6" height="7.2" rx="1.2" fill="#2D6FB5" fill-opacity="0.10"/><rect vector-effect="non-scaling-stroke" x="247.2" y="105.6" width="6.6" height="7.2" rx="1.2" fill="#2D6FB5" fill-opacity="0.21"/><rect vector-effect="non-scaling-stroke" x="255.6" y="105.6" width="6.6" height="7.2" rx="1.2" fill="#2D6FB5" fill-opacity="0.32"/><rect vector-effect="non-scaling-stroke" x="264.0" y="105.6" width="6.6" height="7.2" rx="1.2" fill="#2D6FB5" fill-opacity="0.41"/><rect vector-effect="non-scaling-stroke" x="272.4" y="105.6" width="6.6" height="7.2" rx="1.2" fill="#2D6FB5" fill-opacity="0.48"/><rect vector-effect="non-scaling-stroke" x="280.8" y="105.6" width="6.6" height="7.2" rx="1.2" fill="#2D6FB5" fill-opacity="0.53"/><rect vector-effect="non-scaling-stroke" x="289.2" y="105.6" width="6.6" height="7.2" rx="1.2" fill="#2D6FB5" fill-opacity="0.55"/><rect vector-effect="non-scaling-stroke" x="297.6" y="105.6" width="6.6" height="7.2" rx="1.2" fill="#2D6FB5" fill-opacity="0.54"/><rect vector-effect="non-scaling-stroke" x="306.0" y="105.6" width="6.6" height="7.2" rx="1.2" fill="#2D6FB5" fill-opacity="0.51"/><rect vector-effect="non-scaling-stroke" x="314.4" y="105.6" width="6.6" height="7.2" rx="1.2" fill="#2D6FB5" fill-opacity="0.45"/><rect vector-effect="non-scaling-stroke" x="322.8" y="105.6" width="6.6" height="7.2" rx="1.2" fill="#2D6FB5" fill-opacity="0.36"/><rect vector-effect="non-scaling-stroke" x="331.2" y="105.6" width="6.6" height="7.2" rx="1.2" fill="#2D6FB5" fill-opacity="0.27"/><rect vector-effect="non-scaling-stroke" x="339.6" y="105.6" width="6.6" height="7.2" rx="1.2" fill="#2D6FB5" fill-opacity="0.16"/><rect vector-effect="non-scaling-stroke" x="348.0" y="105.6" width="6.6" height="7.2" rx="1.2" fill="#2D6FB5" fill-opacity="0.10"/><rect vector-effect="non-scaling-stroke" x="222.0" y="115.0" width="6.6" height="7.2" rx="1.2" fill="#2D6FB5" fill-opacity="0.10"/><rect vector-effect="non-scaling-stroke" x="230.4" y="115.0" width="6.6" height="7.2" rx="1.2" fill="#2D6FB5" fill-opacity="0.10"/><rect vector-effect="non-scaling-stroke" x="238.8" y="115.0" width="6.6" height="7.2" rx="1.2" fill="#2D6FB5" fill-opacity="0.10"/><rect vector-effect="non-scaling-stroke" x="247.2" y="115.0" width="6.6" height="7.2" rx="1.2" fill="#2D6FB5" fill-opacity="0.21"/><rect vector-effect="non-scaling-stroke" x="255.6" y="115.0" width="6.6" height="7.2" rx="1.2" fill="#2D6FB5" fill-opacity="0.32"/><rect vector-effect="non-scaling-stroke" x="264.0" y="115.0" width="6.6" height="7.2" rx="1.2" fill="#2D6FB5" fill-opacity="0.41"/><rect vector-effect="non-scaling-stroke" x="272.4" y="115.0" width="6.6" height="7.2" rx="1.2" fill="#2D6FB5" fill-opacity="0.48"/><rect vector-effect="non-scaling-stroke" x="280.8" y="115.0" width="6.6" height="7.2" rx="1.2" fill="#2D6FB5" fill-opacity="0.53"/><rect vector-effect="non-scaling-stroke" x="289.2" y="115.0" width="6.6" height="7.2" rx="1.2" fill="#2D6FB5" fill-opacity="0.55"/><rect vector-effect="non-scaling-stroke" x="297.6" y="115.0" width="6.6" height="7.2" rx="1.2" fill="#2D6FB5" fill-opacity="0.54"/><rect vector-effect="non-scaling-stroke" x="306.0" y="115.0" width="6.6" height="7.2" rx="1.2" fill="#2D6FB5" fill-opacity="0.51"/><rect vector-effect="non-scaling-stroke" x="314.4" y="115.0" width="6.6" height="7.2" rx="1.2" fill="#2D6FB5" fill-opacity="0.45"/><rect vector-effect="non-scaling-stroke" x="322.8" y="115.0" width="6.6" height="7.2" rx="1.2" fill="#2D6FB5" fill-opacity="0.36"/><rect vector-effect="non-scaling-stroke" x="331.2" y="115.0" width="6.6" height="7.2" rx="1.2" fill="#2D6FB5" fill-opacity="0.27"/><rect vector-effect="non-scaling-stroke" x="339.6" y="115.0" width="6.6" height="7.2" rx="1.2" fill="#2D6FB5" fill-opacity="0.16"/><rect vector-effect="non-scaling-stroke" x="348.0" y="115.0" width="6.6" height="7.2" rx="1.2" fill="#2D6FB5" fill-opacity="0.10"/><path vector-effect="non-scaling-stroke" d="M30 150l-8 8 8 8M54 150l8 8-8 8M44 148l-4 20" fill="none" stroke="#0B1B3C" stroke-width="2.1" stroke-linecap="round" stroke-linejoin="round"/><path vector-effect="non-scaling-stroke" d="M80 158h282" stroke="#A9B4CA" stroke-width="1.7" stroke-dasharray="2.5 5.5" stroke-linecap="round"/></g></svg>